<svg xmlns="http://www.w3.org/2000/svg" width="20" height="20" viewBox="0 0 20 20"><rect width="20" height="20" fill="#c9a866"/>
        <circle cx="9" cy="9" r="0.5" fill="#a8854a" opacity="0.5"/>
        <circle cx="11" cy="11" r="0.4" fill="#a8854a" opacity="0.4"/>
        <circle cx="10" cy="10" r="0.2" fill="#b8965a" opacity="0.5"/>
        <path d="M8,12 Q10,11 12,12" stroke="#a8854a" stroke-width="0.3" fill="none" opacity="0.4"/>
          <circle cx="1.5" cy="2" r="2" fill="#a8854a" opacity="0.85"/>
          <circle cx="5" cy="1" r="1.8" fill="#a8854a" opacity="0.8"/>
          <circle cx="8.5" cy="2" r="2" fill="#a8854a" opacity="0.85"/>
          <circle cx="12" cy="1" r="1.8" fill="#a8854a" opacity="0.8"/>
          <circle cx="15.5" cy="2" r="2" fill="#a8854a" opacity="0.85"/>
          <circle cx="19" cy="1" r="1.5" fill="#b8965a" opacity="0.9"/>
          <circle cx="3.5" cy="0.5" r="1" fill="#b8965a" opacity="0.85"/>
          <circle cx="10" cy="0.5" r="0.8" fill="#b8965a" opacity="0.85"/>
          <circle cx="17" cy="0.5" r="1" fill="#b8965a" opacity="0.85"/>
          <circle cx="1.5" cy="18" r="2" fill="#a8854a" opacity="0.85"/>
          <circle cx="5" cy="19" r="1.8" fill="#a8854a" opacity="0.8"/>
          <circle cx="8.5" cy="18" r="2" fill="#a8854a" opacity="0.85"/>
          <circle cx="12" cy="19" r="1.8" fill="#a8854a" opacity="0.8"/>
          <circle cx="15.5" cy="18" r="2" fill="#a8854a" opacity="0.85"/>
          <circle cx="19" cy="19" r="1.5" fill="#b8965a" opacity="0.9"/>
          <circle cx="3.5" cy="19.5" r="1" fill="#b8965a" opacity="0.85"/>
          <circle cx="10" cy="19.5" r="0.8" fill="#b8965a" opacity="0.85"/>
          <circle cx="17" cy="19.5" r="1" fill="#b8965a" opacity="0.85"/>
          <circle cx="2" cy="1.5" r="2" fill="#a8854a" opacity="0.85"/>
          <circle cx="1" cy="5" r="1.8" fill="#a8854a" opacity="0.8"/>
          <circle cx="2" cy="8.5" r="2" fill="#a8854a" opacity="0.85"/>
          <circle cx="1" cy="12" r="1.8" fill="#a8854a" opacity="0.8"/>
          <circle cx="2" cy="15.5" r="2" fill="#a8854a" opacity="0.85"/>
          <circle cx="1" cy="19" r="1.5" fill="#b8965a" opacity="0.9"/>
          <circle cx="0.5" cy="3.5" r="1" fill="#b8965a" opacity="0.85"/>
          <circle cx="0.5" cy="10" r="0.8" fill="#b8965a" opacity="0.85"/>
          <circle cx="0.5" cy="17" r="1" fill="#b8965a" opacity="0.85"/>
        <circle cx="18" cy="1.5" r="2" fill="#a8854a" opacity="0.85"/>
        <circle cx="19" cy="5" r="1.8" fill="#a8854a" opacity="0.8"/>
        <circle cx="18" cy="8.5" r="2" fill="#a8854a" opacity="0.85"/>
        <circle cx="19" cy="12" r="1.8" fill="#a8854a" opacity="0.8"/>
        <circle cx="18" cy="15.5" r="2" fill="#a8854a" opacity="0.85"/>
        <circle cx="19" cy="19" r="1.5" fill="#b8965a" opacity="0.9"/>
        <circle cx="19.5" cy="3.5" r="1" fill="#b8965a" opacity="0.85"/>
        <circle cx="19.5" cy="10" r="0.8" fill="#b8965a" opacity="0.85"/>
        <circle cx="19.5" cy="17" r="1" fill="#b8965a" opacity="0.85"/></svg>