<svg xmlns="http://www.w3.org/2000/svg" width="20" height="20" viewBox="0 0 20 20"><rect width="20" height="20" fill="#c9a866"/>
        <circle cx="9" cy="9" r="0.3" fill="#d4ad6a" opacity="0.4"/>
        <circle cx="11" cy="11" r="0.3" fill="#d4ad6a" opacity="0.4"/>
        <circle cx="10" cy="10" r="0.2" fill="#e8c890" opacity="0.5"/>
          <circle cx="2" cy="4" r="3.5" fill="#d4ad6a" opacity="0.85"/>
          <circle cx="7" cy="3" r="3" fill="#d4ad6a" opacity="0.8"/>
          <circle cx="12" cy="4" r="3.5" fill="#d4ad6a" opacity="0.85"/>
          <circle cx="17" cy="3" r="3" fill="#d4ad6a" opacity="0.8"/>
          <circle cx="10" cy="0.5" r="1.5" fill="#e8c890" opacity="0.9"/>
          <circle cx="5" cy="0.5" r="1.2" fill="#e8c890" opacity="0.85"/>
          <circle cx="15" cy="0.5" r="1.2" fill="#e8c890" opacity="0.85"/>
          <circle cx="2" cy="16" r="3.5" fill="#d4ad6a" opacity="0.85"/>
          <circle cx="7" cy="17" r="3" fill="#d4ad6a" opacity="0.8"/>
          <circle cx="12" cy="16" r="3.5" fill="#d4ad6a" opacity="0.85"/>
          <circle cx="17" cy="17" r="3" fill="#d4ad6a" opacity="0.8"/>
          <circle cx="10" cy="19.5" r="1.5" fill="#e8c890" opacity="0.9"/>
          <circle cx="5" cy="19.5" r="1.2" fill="#e8c890" opacity="0.85"/>
          <circle cx="15" cy="19.5" r="1.2" fill="#e8c890" opacity="0.85"/>
          <circle cx="4" cy="2" r="3.5" fill="#d4ad6a" opacity="0.85"/>
          <circle cx="3" cy="7" r="3" fill="#d4ad6a" opacity="0.8"/>
          <circle cx="4" cy="12" r="3.5" fill="#d4ad6a" opacity="0.85"/>
          <circle cx="3" cy="17" r="3" fill="#d4ad6a" opacity="0.8"/>
          <circle cx="0.5" cy="10" r="1.5" fill="#e8c890" opacity="0.9"/>
          <circle cx="0.5" cy="5" r="1.2" fill="#e8c890" opacity="0.85"/>
          <circle cx="0.5" cy="15" r="1.2" fill="#e8c890" opacity="0.85"/>
        <circle cx="16" cy="2" r="3.5" fill="#d4ad6a" opacity="0.85"/>
        <circle cx="17" cy="7" r="3" fill="#d4ad6a" opacity="0.8"/>
        <circle cx="16" cy="12" r="3.5" fill="#d4ad6a" opacity="0.85"/>
        <circle cx="17" cy="17" r="3" fill="#d4ad6a" opacity="0.8"/>
        <circle cx="19.5" cy="10" r="1.5" fill="#e8c890" opacity="0.9"/>
        <circle cx="19.5" cy="5" r="1.2" fill="#e8c890" opacity="0.85"/>
        <circle cx="19.5" cy="15" r="1.2" fill="#e8c890" opacity="0.85"/></svg>